<svg xmlns="http://www.w3.org/2000/svg" viewBox="0 0 32 32" width="28" height="28" style="border-color: rgba(187,187,187,1);border-width: 0px;border-style: solid" filter="none">
    <path d="M28 26.667c0 0.736-0.597 1.333-1.333 1.333v0h-21.333c-0.736 0-1.333-0.597-1.333-1.333v0-14.013c0-0 0-0.001 0-0.001 0-0.426 0.2-0.806 0.512-1.050l0.003-0.002 10.667-8.296c0.223-0.175 0.509-0.281 0.819-0.281s0.595 0.106 0.822 0.283l-0.003-0.002 10.667 8.296c0.314 0.246 0.515 0.626 0.515 1.052 0 0 0 0.001 0 0.001v-0 14.013zM25.333 25.333v-12.029l-9.333-7.259-9.333 7.259v12.029h18.667zM9.333 20h13.333v2.667h-13.333v-2.667z" fill="#101010"></path>
  </svg>